<svg width="40" height="40" viewBox="0 0 40 40" fill="none" xmlns="http://www.w3.org/2000/svg">
<path d="M2.5 15.1667C2.5 10.7329 2.5 8.51604 3.36287 6.82258C4.12186 5.33296 5.33296 4.12186 6.82258 3.36287C8.51604 2.5 10.7329 2.5 15.1667 2.5H24.8333C29.2671 2.5 31.484 2.5 33.1774 3.36287C34.667 4.12186 35.8781 5.33296 36.6371 6.82258C37.5 8.51604 37.5 10.7329 37.5 15.1667V24.8333C37.5 29.2671 37.5 31.484 36.6371 33.1774C35.8781 34.667 34.667 35.8781 33.1774 36.6371C31.484 37.5 29.2671 37.5 24.8333 37.5H15.1667C10.7329 37.5 8.51604 37.5 6.82258 36.6371C5.33296 35.8781 4.12186 34.667 3.36287 33.1774C2.5 31.484 2.5 29.2671 2.5 24.8333V15.1667Z" fill="#330000"/>
<path d="M19.4603 24.4953H14.0366L12.9331 28.0112C12.9025 28.1418 12.7822 28.2343 12.6514 28.2279H9.90431C9.74765 28.2279 9.69287 28.1396 9.73996 27.963L14.4358 14.0923C14.4828 13.9478 14.5297 13.7832 14.5767 13.5986C14.6381 13.2773 14.6695 12.9507 14.6706 12.6233C14.6571 12.5266 14.7421 12.4412 14.8349 12.4547H18.5681C18.6775 12.4547 18.7401 12.4949 18.7559 12.5752L24.0858 27.9871C24.1327 28.1478 24.0857 28.228 23.9448 28.2279H20.8925C20.7855 28.2401 20.6832 28.1667 20.6577 28.0594L19.4603 24.4953ZM14.8819 21.4611H18.5916C17.9821 19.3784 17.2943 17.323 16.7368 15.2241C16.1353 17.3266 15.479 19.4206 14.8819 21.4611Z" fill="#FF9A00"/>
<path d="M27.2551 15.0073C27.0156 15.0171 26.7768 14.9751 26.5543 14.8838C26.3318 14.7925 26.1306 14.654 25.9638 14.4775C25.7975 14.2933 25.6683 14.0772 25.5836 13.8417C25.499 13.6061 25.4606 13.3557 25.4707 13.1049C25.4621 12.8565 25.5048 12.6091 25.5958 12.3788C25.6868 12.1485 25.8242 11.9405 25.999 11.7684C26.172 11.598 26.3763 11.4645 26.5999 11.3756C26.8236 11.2868 27.0623 11.2443 27.302 11.2506C27.8656 11.2506 28.3078 11.4232 28.6286 11.7684C28.7906 11.9477 28.9165 12.1581 28.9991 12.3874C29.0817 12.6168 29.1193 12.8606 29.1099 13.1049C29.1198 13.3567 29.0801 13.6079 28.9934 13.8437C28.9067 14.0795 28.7747 14.2951 28.6051 14.4775C28.428 14.6566 28.2166 14.7962 27.9842 14.8873C27.7519 14.9785 27.5036 15.0194 27.2551 15.0073ZM25.635 27.987V16.4762C25.635 16.3317 25.6974 16.2595 25.8229 16.2595H28.7108C28.8359 16.2595 28.8986 16.3317 28.8987 16.4762V27.987C28.8987 28.1477 28.8361 28.228 28.7108 28.2278H25.8464C25.7055 28.2278 25.6351 28.1476 25.635 27.987Z" fill="#FF9A00"/>
</svg>
