<svg width="40" height="40" viewBox="0 0 40 40" fill="none" xmlns="http://www.w3.org/2000/svg">
<path d="M2.5 15.1667C2.5 10.7329 2.5 8.51604 3.36287 6.82258C4.12186 5.33296 5.33296 4.12186 6.82258 3.36287C8.51604 2.5 10.7329 2.5 15.1667 2.5H24.8333C29.2671 2.5 31.484 2.5 33.1774 3.36287C34.667 4.12186 35.8781 5.33296 36.6371 6.82258C37.5 8.51604 37.5 10.7329 37.5 15.1667V24.8333C37.5 29.2671 37.5 31.484 36.6371 33.1774C35.8781 34.667 34.667 35.8781 33.1774 36.6371C31.484 37.5 29.2671 37.5 24.8333 37.5H15.1667C10.7329 37.5 8.51604 37.5 6.82258 36.6371C5.33296 35.8781 4.12186 34.667 3.36287 33.1774C2.5 31.484 2.5 29.2671 2.5 24.8333V15.1667Z" fill="#001E36"/>
<path d="M10 28.1453V12.7543C10 12.6496 10.0438 12.5897 10.1458 12.5897C11.6529 12.5897 13.1592 12.5 14.6667 12.5C17.1127 12.5 19.7612 13.3364 20.6896 15.8953C20.9083 16.5235 21.025 17.1667 21.025 17.8397C21.025 19.1261 20.7333 20.188 20.15 21.0256C18.5205 23.3654 15.6962 23.3291 13.1646 23.3291V28.1304C13.1844 28.2725 13.0632 28.3398 12.9458 28.3398H10.175C10.0583 28.3398 10 28.2799 10 28.1453ZM13.1792 15.4765V20.5021C14.183 20.5757 15.2334 20.5837 16.1979 20.2628C17.2627 19.9557 17.8458 19.0339 17.8458 17.9295C17.8754 16.9884 17.3626 16.0854 16.4896 15.7457C15.5367 15.3495 14.2078 15.3258 13.1792 15.4765Z" fill="#31A8FF"/>
<path d="M30.1208 19.5092C29.6796 19.2767 29.2096 19.1066 28.7238 19.0035C28.0995 18.8566 25.6372 18.3421 25.6363 19.6296C25.6581 20.3484 26.7991 20.7006 27.3033 20.9059C29.0731 21.5135 31.0759 22.5996 31.0365 24.783C31.0906 27.501 28.4572 28.5876 26.1998 28.5878C25.0246 28.6 23.8003 28.418 22.7248 27.9135C22.6222 27.8592 22.5561 27.743 22.5605 27.6246V25.0238C22.5489 24.9195 22.6608 24.8284 22.7483 24.9034C23.8021 25.5407 25.0512 25.8501 26.2702 25.8666C26.8083 25.8666 27.8749 25.8145 27.8668 25.0238C27.8668 24.265 26.5909 23.9162 26.0824 23.7234C25.3451 23.4602 24.6461 23.0957 24.0045 22.6398C23.1077 22.0001 22.5452 20.9746 22.5605 19.8463C22.5553 17.2871 24.9793 16.1384 27.1624 16.1378C28.183 16.1294 29.2789 16.205 30.229 16.6195C30.3656 16.6597 30.3939 16.8036 30.3933 16.9325V19.3647C30.402 19.5157 30.2343 19.5671 30.1208 19.5092Z" fill="#31A8FF"/>
</svg>
