<svg width="48" height="48" viewBox="0 0 98 98" fill="none" xmlns="http://www.w3.org/2000/svg">
<path d="M74.325 85.1444C62.3734 93.9161 41.0336 94.4894 30.177 79.6994C19.3205 64.9094 7.88556 47.1678 18.7533 37.6679C33.8079 19.4175 82.8682 24.3392 91.0347 40.7154C99.7561 58.2047 86.2765 76.3728 74.325 85.1444Z" fill="#EC5A61" fill-opacity="0.35"/>
<path d="M68.2173 74.0143C58.5433 85.2477 37.8784 90.6025 23.975 78.631C10.0716 66.6595 -5.05877 51.942 3.39544 40.2426C13.9623 19.0756 62.8736 12.8449 74.5123 26.9666C86.9419 42.0482 77.8913 62.781 68.2173 74.0143Z" fill="#EC5A61" fill-opacity="0.65"/>
<path d="M66.7853 70.2346C54.293 78.2174 32.9605 77.4136 23.0804 61.9544C13.2002 46.4951 2.93315 28.0532 14.3909 19.2738C30.5911 2.03201 79.2319 10.1067 86.3253 26.9755C93.9008 44.9906 79.2776 62.2518 66.7853 70.2346Z" fill="#EC5A61" fill-opacity="0.35"/>
</svg>
