<svg width="510" height="499" viewBox="0 0 510 499" fill="none" xmlns="http://www.w3.org/2000/svg">
<path d="M234.861 30.79H160.584V50.4436H234.861V30.79Z" fill="#EBEBEB"/>
<path d="M203.457 71.1364C203.441 71.0176 203.441 70.8973 203.457 70.7786C203.457 70.5215 203.457 70.1861 203.457 69.7725C203.457 68.8446 203.457 67.5365 203.401 65.9043C203.401 62.5505 203.323 57.6315 203.267 51.4939L203.502 51.7175L129.225 51.8629C129.393 51.6952 128.845 52.243 129.605 51.4939V61.4661C129.605 64.7379 129.605 67.9576 129.605 71.1252L129.236 70.7562L182.171 70.9239L197.823 71.0357H202.049H203.167H203.558C203.443 71.0538 203.326 71.0538 203.211 71.0357H202.149H198.002L182.473 71.1364L129.18 71.5276H128.812V71.1587C128.812 67.9949 128.812 64.7752 128.812 61.4996V51.5051L129.192 51.125L203.468 51.2703H203.703V51.5051C203.703 57.7097 203.614 62.6846 203.58 66.0385C203.58 67.6707 203.58 68.9452 203.524 69.8619C203.524 70.2532 203.524 70.5774 203.524 70.8233C203.524 71.0693 203.457 71.1475 203.457 71.1364Z" fill="#E0E0E0"/>
<path d="M145.905 0.682617H17.0947V134.96H145.905V0.682617Z" fill="#E0E0E0"/>
<path d="M137.186 0.682617H8.375V134.96H137.186V0.682617Z" fill="#FAFAFA"/>
<path d="M137.23 135.005H8.30762V0.638672H137.208L137.23 135.005ZM8.40823 134.916H137.152V0.761647H8.40823V134.916Z" fill="#E0E0E0"/>
<path d="M119.88 18.7275H25.6924V116.906H119.88V18.7275Z" fill="white"/>
<path d="M25.6922 117.565C25.0176 118.546 24.2379 119.449 23.3668 120.26C21.8576 121.847 19.7447 124.005 17.3746 126.33C15.0045 128.656 12.8357 130.746 11.2259 132.222C10.4077 133.072 9.49206 133.822 8.49805 134.458C9.16471 133.475 9.94109 132.571 10.8122 131.763C12.3214 130.176 14.4344 128.029 16.8156 125.682C19.1969 123.334 21.3769 121.266 22.9755 119.79C23.7885 118.942 24.7006 118.195 25.6922 117.565V117.565Z" fill="#E0E0E0"/>
<path d="M119.868 117.364C120.853 118.037 121.761 118.817 122.574 119.69C124.161 121.199 126.308 123.312 128.644 125.682C130.981 128.052 133.116 130.221 134.536 131.831C135.381 132.649 136.131 133.56 136.772 134.547C135.781 133.895 134.876 133.121 134.077 132.244C132.49 130.735 130.332 128.622 127.996 126.241C125.659 123.86 123.524 121.68 122.093 120.081C121.245 119.268 120.498 118.356 119.868 117.364V117.364Z" fill="#E0E0E0"/>
<path d="M119.611 18.9845C120.284 17.9992 121.064 17.0918 121.937 16.2791C123.446 14.6916 125.559 12.5451 127.929 10.2086C130.299 7.87205 132.468 5.79266 134.078 4.31696C134.889 3.45997 135.806 2.70874 136.805 2.08105C136.136 3.05868 135.36 3.95861 134.491 4.76414C132.982 6.35164 130.869 8.50929 128.488 10.8458C126.107 13.1823 123.927 15.3176 122.328 16.7486C121.516 17.6004 120.603 18.3512 119.611 18.9845Z" fill="#E0E0E0"/>
<path d="M25.4347 19.2308C24.4442 18.5695 23.536 17.7927 22.7293 16.9166C21.1418 15.4074 18.9953 13.2945 16.6588 10.9244C14.3222 8.55434 12.2429 6.37433 10.7672 4.77566C9.92031 3.95459 9.17014 3.03937 8.53125 2.04785C9.52003 2.7069 10.4248 3.48402 11.2255 4.36201C12.7795 5.86007 14.9371 7.98418 17.2513 10.3654C19.5654 12.7467 21.7231 14.9155 23.1541 16.5253C24.0164 17.3359 24.7817 18.2438 25.4347 19.2308V19.2308Z" fill="#E0E0E0"/>
<path d="M119.611 116.906C119.611 116.906 119.611 116.738 119.611 116.436C119.611 116.134 119.611 115.642 119.611 115.061C119.611 113.831 119.611 112.065 119.611 109.762C119.611 105.111 119.555 98.3477 119.51 89.7507C119.51 72.5565 119.41 48.0622 119.331 18.7271L119.689 19.096H25.781L26.1947 18.6712C26.1947 54.714 26.1947 88.4203 26.1388 116.85L25.781 116.492L93.7861 116.682L112.892 116.772H117.945H119.253H119.7C119.563 116.79 119.424 116.79 119.287 116.772H118.023H113.037L94.032 116.861L25.8369 117.04H25.4792V116.682C25.4792 88.2526 25.4792 54.5463 25.4121 18.5035V18.3135H25.8481L119.756 18.3694H120.125V18.7271C120.047 48.1628 119.98 72.7354 119.935 89.9854C119.935 98.5378 119.868 105.279 119.846 109.907C119.846 112.143 119.846 113.932 119.846 115.139C119.846 115.71 119.846 116.146 119.846 116.47C119.78 116.622 119.702 116.768 119.611 116.906V116.906Z" fill="#E0E0E0"/>
<path d="M88.4872 52.1094H57.0615V83.535H88.4872V52.1094Z" fill="#EBEBEB"/>
<path d="M46.5752 161.434L66.0947 156.962L71.5726 196.146L58.5261 199.12L46.5752 161.434ZM62.6066 219.433C61.531 218.82 60.5974 217.985 59.8672 216.985C59.1369 215.985 58.6265 214.842 58.3696 213.631C58.0714 212.432 58.039 211.182 58.2746 209.97C58.5102 208.757 59.0081 207.61 59.7335 206.61C61.2991 204.453 63.6313 202.977 66.2512 202.485C68.8102 201.786 71.5408 202.111 73.8644 203.39C74.9363 203.992 75.8644 204.82 76.5844 205.816C77.3045 206.812 77.7993 207.953 78.0344 209.159C78.3303 210.362 78.3677 211.613 78.1441 212.831C77.9206 214.049 77.4412 215.206 76.7376 216.225C75.1726 218.367 72.8864 219.871 70.3 220.461C67.7135 221.05 65.0012 220.685 62.6625 219.433H62.6066Z" fill="#E0E0E0"/>
<path d="M7.93882 168.208C8.84873 168.224 9.74518 168.431 10.5697 168.816C11.3941 169.201 12.1281 169.756 12.7237 170.444C13.3534 171.113 13.8273 171.913 14.1114 172.787C14.3955 173.66 14.4828 174.586 14.367 175.497C14.122 177.418 13.1546 179.173 11.6616 180.405C10.2643 181.766 8.39123 182.528 6.44077 182.529C5.53641 182.519 4.64489 182.314 3.82691 181.928C3.00893 181.542 2.28371 180.985 1.70064 180.293C1.08225 179.623 0.613826 178.829 0.326594 177.963C0.0393618 177.098 -0.06008 176.181 0.0348938 175.274C0.121327 174.31 0.396848 173.372 0.845713 172.515C1.29458 171.657 1.90799 170.897 2.6509 170.277C4.07116 168.916 5.97219 168.172 7.93882 168.208ZM38.8502 199.913L27.8384 209.707L10.4095 186.386L17.7656 179.846L38.8502 199.913Z" fill="#E0E0E0"/>
<path d="M485.652 282.095H411.375V301.748H485.652V282.095Z" fill="#EBEBEB"/>
<path d="M454.236 322.441C454.236 322.441 454.236 322.318 454.236 322.083C454.236 321.849 454.236 321.491 454.236 321.077C454.236 320.149 454.236 318.841 454.236 317.209C454.236 313.855 454.169 308.936 454.113 302.787L454.337 303.022L380.071 303.168L380.44 302.799V322.43L380.06 322.061L432.995 322.229L448.646 322.329H452.861H453.979H454.37C454.259 322.349 454.146 322.349 454.035 322.329H452.973H448.825L433.286 322.43L380.094 322.598H379.725V302.81L380.105 302.43L454.37 302.575H454.605V302.799C454.605 309.014 454.504 313.978 454.482 317.332C454.482 318.964 454.482 320.239 454.426 321.155C454.426 321.547 454.426 321.871 454.426 322.117C454.387 322.237 454.322 322.348 454.236 322.441V322.441Z" fill="#E0E0E0"/>
<path d="M427.663 45.67C427.648 45.5512 427.648 45.431 427.663 45.3123C427.663 45.0439 427.663 44.7197 427.663 44.3061C427.663 43.3782 427.663 42.0702 427.607 40.438C427.607 37.0841 427.529 32.1651 427.473 26.0164L427.708 26.2512L353.431 26.3965L353.811 26.0164V35.9885C353.811 39.2753 353.811 42.4987 353.811 45.6588L353.442 45.2899L406.377 45.4576L422.029 45.5582H426.255H427.373C427.503 45.5429 427.634 45.5429 427.764 45.5582H427.417H426.355H422.208L406.679 45.67L353.487 45.8377H353.118V45.4688C353.118 42.305 353.118 39.0853 353.118 35.7985V26.0276L353.498 25.6475L427.775 25.804H428.01V26.0276C428.01 32.2322 427.92 37.2071 427.887 40.561C427.887 42.1932 427.887 43.4676 427.831 44.3732C427.831 44.7756 427.831 45.0887 427.831 45.3458C427.831 45.6029 427.663 45.67 427.663 45.67Z" fill="#E0E0E0"/>
<path d="M437.736 26.0164C437.723 25.8938 437.723 25.7702 437.736 25.6475C437.736 25.3569 437.736 25.0215 437.736 24.6078C437.736 23.6352 437.736 22.316 437.669 20.6615C437.669 17.2182 437.59 12.3551 437.523 6.36283L437.803 6.64232L393.174 6.74294C392.839 7.0895 393.632 6.28458 393.554 6.37401V16.4356C393.554 19.7224 393.554 22.9085 393.554 25.9605L393.107 25.6922L425.024 25.8599L434.326 25.9605H436.83C437.132 25.9431 437.434 25.9431 437.736 25.9605C437.464 25.9812 437.191 25.9812 436.919 25.9605H434.494L425.27 26.0612L393.107 26.2289H392.749V25.8711C392.749 22.8191 392.749 19.6329 392.749 16.3462V6.28458C392.66 6.36283 393.465 5.55791 393.129 5.90447L437.758 6.00509H438.026V6.2734C437.959 12.3327 437.914 17.2517 437.881 20.7397C437.881 22.3719 437.825 23.6687 437.814 24.619C437.803 25.5693 437.747 26.0388 437.736 26.0164Z" fill="#E0E0E0"/>
<path d="M321.771 431.889C321.762 431.77 321.762 431.65 321.771 431.531C321.771 431.263 321.771 430.939 321.771 430.525C321.771 429.597 321.771 428.289 321.715 426.657C321.715 423.303 321.637 418.384 321.592 412.235L321.815 412.47L247.55 412.615C247.717 412.448 247.17 412.995 247.919 412.235V422.185C247.919 425.472 247.919 428.695 247.919 431.855L247.55 431.509L300.485 431.676L316.136 431.777L320.362 431.833H321.48H321.871C321.756 431.844 321.64 431.844 321.525 431.833H320.474L316.326 431.889L300.787 431.989L247.594 432.157H247.226V422.095C247.226 420.463 247.226 418.809 247.226 417.143V412.146L247.617 411.766L321.882 411.922H322.117V412.146C322.061 418.362 322.017 423.325 321.983 426.679C321.983 428.311 321.983 429.586 321.927 430.491V431.464C321.913 431.617 321.859 431.763 321.771 431.889V431.889Z" fill="#E0E0E0"/>
<path d="M331.844 412.236C331.831 412.113 331.831 411.99 331.844 411.867C331.844 411.588 331.844 411.241 331.844 410.827C331.844 409.855 331.844 408.591 331.777 406.881C331.777 403.438 331.687 398.575 331.631 392.594L331.9 392.862L287.271 392.974L287.651 392.594V402.655C287.651 405.942 287.651 409.128 287.651 412.18L287.293 411.822L319.222 411.99L328.523 412.091H331.028H331.922C331.654 412.119 331.385 412.119 331.117 412.091H328.68L319.457 412.191L287.293 412.37H286.936V412.001C286.936 408.949 286.936 405.763 286.936 402.476C286.936 400.833 286.936 399.122 286.936 397.479V392.605L287.316 392.225L331.944 392.325H332.224V392.605C332.168 398.653 332.112 403.572 332.078 407.06C332.078 408.692 332.078 409.989 332.011 410.939C331.982 411.374 331.926 411.807 331.844 412.236V412.236Z" fill="#E0E0E0"/>
<path d="M471.23 498.084C471.23 498.24 372.079 498.374 249.797 498.374C127.515 498.374 28.3418 498.24 28.3418 498.084C28.3418 497.927 127.471 497.793 249.797 497.793C372.123 497.793 471.23 497.916 471.23 498.084Z" fill="#263238"/>
<path d="M430.334 370.256C429.804 371.571 429.579 372.989 429.675 374.404C429.334 372.734 428.694 371.139 427.785 369.697C427.439 369.161 426.902 368.579 426.287 368.747C425.672 368.915 425.471 369.675 425.449 370.312C425.38 372.068 425.765 373.813 426.567 375.377C425.433 373.927 423.963 372.776 422.285 372.023C422.148 371.936 421.991 371.884 421.829 371.873C421.668 371.861 421.505 371.889 421.357 371.956C421.033 372.157 421.033 372.615 421.078 372.984C421.302 374.461 421.905 375.855 422.828 377.031C423.751 378.206 424.962 379.123 426.343 379.692L427.249 379.826C429.2 379.289 430.877 378.037 431.948 376.32C433.018 374.603 433.404 372.547 433.028 370.558C432.894 369.809 432.47 368.937 431.709 368.926C430.949 368.915 430.591 369.619 430.334 370.256Z" fill="#EC5A61"/>
<path d="M410.01 410.849C412.651 409.183 415.571 408.005 418.629 407.373C416.817 401.178 416.732 394.606 418.383 388.367C418.965 385.883 420.062 383.548 421.603 381.514C422.377 380.504 423.349 379.662 424.461 379.041C425.572 378.42 426.798 378.033 428.065 377.903C429.439 377.883 430.799 378.174 432.044 378.755C433.289 379.336 434.386 380.191 435.253 381.257L438.439 388.613C438.622 389.683 438.749 390.761 438.819 391.844C439.197 398.997 437.591 406.116 434.18 412.415C437.534 416.059 441.078 422.364 439.993 429.665H402.24C401.58 422.566 404.241 415.008 410.01 410.849Z" fill="#455A64"/>
<path d="M435.857 414.739C435.857 414.739 435.779 414.583 435.578 414.326C435.29 413.933 434.976 413.56 434.639 413.208C433.413 411.936 432.004 410.854 430.458 409.999C428.157 408.724 425.626 407.919 423.012 407.629C419.793 407.209 416.521 407.665 413.54 408.95C410.559 410.235 407.98 412.301 406.075 414.93C404.502 417.032 403.362 419.426 402.721 421.973C402.278 423.683 402.094 425.451 402.173 427.216C402.198 427.692 402.25 428.166 402.33 428.636C402.336 428.804 402.37 428.97 402.43 429.128C402.292 426.754 402.526 424.374 403.124 422.073C403.807 419.597 404.965 417.277 406.533 415.243C408.401 412.711 410.908 410.72 413.797 409.475C416.687 408.23 419.855 407.774 422.978 408.155C425.536 408.424 428.019 409.183 430.29 410.391C432.36 411.542 434.239 413.009 435.857 414.739V414.739Z" fill="#263238"/>
<path d="M439.01 394.493C439.15 393.666 439.172 392.823 439.077 391.989C439.019 389.961 438.677 387.952 438.06 386.019C437.432 384.061 436.321 382.292 434.829 380.877C434.247 380.256 433.515 379.794 432.705 379.535C432.649 379.625 433.498 380.083 434.549 381.167C435.898 382.605 436.914 384.323 437.523 386.198C438.107 388.093 438.482 390.046 438.641 392.023C438.691 392.855 438.815 393.682 439.01 394.493V394.493Z" fill="#263238"/>
<path d="M417.188 424.802C416.096 423.517 414.916 422.31 413.655 421.191C412.528 419.943 411.31 418.781 410.011 417.714C410.892 419.165 411.984 420.476 413.253 421.604C414.393 422.865 415.72 423.943 417.188 424.802V424.802Z" fill="#263238"/>
<path d="M421.391 422.566C421.374 421.294 421.167 420.031 420.776 418.821C420.58 417.573 420.203 416.36 419.658 415.221C419.852 417.744 420.436 420.222 421.391 422.566V422.566Z" fill="#263238"/>
<path d="M432.604 418.406C430.851 420.486 429.693 423.001 429.25 425.684C429.911 424.527 430.472 423.315 430.927 422.062C431.578 420.888 432.139 419.666 432.604 418.406V418.406Z" fill="#263238"/>
<path d="M420.475 400.777C418.926 398.101 417.048 395.63 414.885 393.421C415.577 394.803 416.437 396.095 417.445 397.267C418.304 398.559 419.322 399.738 420.475 400.777V400.777Z" fill="#263238"/>
<path d="M423.146 389.026C421.379 385.775 419.281 382.714 416.886 379.893C417.686 381.564 418.657 383.149 419.781 384.622C420.744 386.205 421.872 387.682 423.146 389.026V389.026Z" fill="#263238"/>
<path d="M427.394 392.067C426.847 394.709 426.678 397.416 426.891 400.105C427.438 397.463 427.607 394.757 427.394 392.067V392.067Z" fill="#263238"/>
<path d="M444.309 397.445C442.417 398.128 440.618 399.044 438.954 400.173C437.19 401.142 435.55 402.321 434.068 403.683C435.864 402.796 437.597 401.788 439.256 400.665C441.008 399.703 442.696 398.628 444.309 397.445Z" fill="#263238"/>
<g opacity="0.3">
<path opacity="0.3" d="M430.771 407.607C428.88 406.619 426.779 406.101 424.645 406.098C422.409 405.986 419.983 406.209 418.496 407.83V407.909C424.083 407.567 429.602 409.289 434.002 412.749C433.955 411.686 433.632 410.653 433.066 409.751C432.5 408.85 431.709 408.111 430.771 407.607V407.607Z" fill="black"/>
</g>
<path d="M412.817 333.453C411.723 333.156 410.577 333.111 409.463 333.319C410.739 332.9 411.929 332.253 412.973 331.408C413.353 331.083 413.756 330.614 413.577 330.144C413.398 329.675 412.772 329.597 412.269 329.641C410.889 329.755 409.563 330.229 408.423 331.016C409.452 329.991 410.219 328.734 410.659 327.349C410.714 327.236 410.743 327.112 410.743 326.986C410.743 326.86 410.714 326.736 410.659 326.623C410.545 326.525 410.406 326.462 410.258 326.44C410.109 326.418 409.958 326.439 409.821 326.5C408.692 326.818 407.664 327.421 406.836 328.251C406.007 329.081 405.407 330.11 405.092 331.24V331.967C405.706 333.438 406.84 334.631 408.278 335.32C409.722 335.993 411.365 336.101 412.884 335.622C413.454 335.443 414.102 335.03 414.002 334.437C413.901 333.845 413.342 333.588 412.817 333.453Z" fill="#EC5A61"/>
<path d="M336.672 285.191C336.468 286.306 336.517 287.453 336.818 288.545C336.284 287.3 335.526 286.163 334.582 285.191C334.235 284.834 333.721 284.476 333.274 284.7C332.827 284.923 332.793 285.549 332.882 286.041C333.114 287.407 333.696 288.689 334.571 289.764C333.466 288.833 332.149 288.188 330.736 287.886C330.617 287.841 330.488 287.826 330.362 287.842C330.235 287.857 330.114 287.903 330.009 287.975C329.797 288.176 329.864 288.534 330.009 288.814C330.419 289.913 331.105 290.888 332.002 291.644C332.899 292.4 333.977 292.912 335.13 293.129H335.856C337.274 292.402 338.368 291.169 338.921 289.675C339.474 288.18 339.445 286.532 338.841 285.057C338.606 284.498 338.137 283.939 337.556 284.006C336.974 284.074 336.762 284.666 336.672 285.191Z" fill="#EC5A61"/>
<path d="M389.686 383.929C389.127 383.929 388.568 384.007 388.065 384.063C387.092 373.275 390.357 362.319 387.059 352.012L387.506 352.571C391.476 353.203 395.54 352.838 399.334 351.509C401.225 350.838 402.959 349.789 404.431 348.426C405.903 347.064 407.083 345.415 407.898 343.582C408.672 341.735 408.911 339.708 408.589 337.731C408.267 335.755 407.396 333.908 406.075 332.403C402.341 328.501 395.768 328.702 391.084 331.397C386.612 333.99 383.392 338.339 380.418 342.632C378.86 341.39 377.122 340.391 375.265 339.669C380.463 332.503 385.494 324.979 387.137 316.315C388.937 306.846 385.393 295.633 376.606 291.72C369.127 288.367 359.736 291.396 354.459 297.69C354.046 298.182 353.699 298.708 353.341 299.233L353.52 298.719C352.224 295.383 349.666 292.691 346.399 291.228C344.772 290.522 343.004 290.199 341.233 290.284C339.461 290.369 337.732 290.861 336.181 291.72C334.646 292.609 333.373 293.888 332.492 295.427C331.61 296.967 331.151 298.711 331.161 300.485C331.318 302.479 332.003 304.395 333.147 306.036C334.291 307.677 335.851 308.983 337.668 309.82C341.18 311.381 345.107 311.747 348.847 310.86C348.368 314.198 348.387 317.589 348.903 320.921C350.077 328.445 353.431 335.455 357.422 341.972C356.315 342.709 355.288 343.559 354.359 344.51C347.573 351.609 347.137 363.012 350.692 372.168C354.247 381.324 363.873 388.077 370.547 395.276C367.803 400.257 366.06 405.725 365.415 411.375C364.237 408.934 362.406 406.867 360.125 405.402C357.844 403.938 355.202 403.134 352.492 403.08C349.574 403.08 346.31 404.399 345.404 407.171C344.61 409.62 345.952 412.258 347.64 414.147C349.838 416.353 352.556 417.969 355.544 418.844C358.532 419.72 361.693 419.827 364.733 419.156L364.812 417.378C364.583 421.479 364.68 425.591 365.102 429.676H408.188C408.188 429.676 419.77 382.811 389.686 383.929Z" fill="#455A64"/>
<path d="M457.646 429.608H355.7V447.675H457.646V429.608Z" fill="#EC5A61"/>
<path d="M363.313 444.086L375.712 498.083H436.472L450.033 444.086H363.313Z" fill="#EC5A61"/>
<path d="M457.591 447.697C457.591 447.898 434.594 448.054 406.232 448.054C377.869 448.054 354.873 447.898 354.873 447.697C354.873 447.495 377.869 447.339 406.232 447.339C434.594 447.339 457.591 447.495 457.591 447.697Z" fill="#263238"/>
<path d="M397.68 385.673C397.499 385.534 397.3 385.421 397.087 385.337C396.513 385.032 395.915 384.774 395.299 384.566C393.016 383.814 390.604 383.536 388.211 383.75C384.646 384.068 381.215 385.266 378.228 387.238C374.62 389.724 371.676 393.055 369.653 396.941C367.615 400.787 366.225 404.942 365.539 409.239C365.029 412.737 364.801 416.269 364.857 419.804C364.857 422.822 364.969 425.259 365.025 426.936C365.025 427.73 365.092 428.367 365.114 428.87C365.097 429.097 365.097 429.325 365.114 429.552C365.164 429.328 365.182 429.099 365.17 428.87C365.17 428.367 365.17 427.752 365.17 426.936C365.17 425.181 365.17 422.766 365.17 419.815C365.176 416.3 365.445 412.791 365.975 409.317C366.675 405.083 368.057 400.991 370.066 397.199C372.044 393.392 374.913 390.121 378.429 387.662C381.335 385.711 384.674 384.499 388.155 384.13C390.503 383.883 392.876 384.096 395.142 384.756C396.83 385.304 397.646 385.773 397.68 385.673Z" fill="#263238"/>
<path d="M388.568 362.833C388.618 362.666 388.641 362.493 388.635 362.319C388.687 361.828 388.709 361.336 388.702 360.843C388.692 359.025 388.478 357.214 388.065 355.443C387.471 352.806 386.46 350.281 385.069 347.964C384.261 346.581 383.288 345.301 382.173 344.152C381.005 342.885 379.647 341.806 378.148 340.955C376.645 340.096 375.021 339.47 373.33 339.099C371.755 338.789 370.149 338.669 368.545 338.741C365.849 338.908 363.201 339.54 360.72 340.608C359.059 341.305 357.475 342.171 355.991 343.19C355.454 343.537 355.074 343.861 354.806 344.062C354.537 344.264 354.414 344.387 354.426 344.409C354.437 344.431 355.029 344.04 356.114 343.369C357.638 342.428 359.243 341.624 360.91 340.966C363.369 339.963 365.981 339.384 368.635 339.255C370.19 339.193 371.748 339.317 373.274 339.624C376.55 340.36 379.529 342.062 381.827 344.51C382.913 345.629 383.866 346.871 384.666 348.21C386.058 350.473 387.088 352.94 387.718 355.521C388.163 357.261 388.437 359.039 388.534 360.832C388.534 362.117 388.523 362.822 388.568 362.833Z" fill="#263238"/>
<path d="M348.523 317.243C348.74 316.104 348.859 314.949 348.881 313.789C348.97 312.671 349.082 311.452 349.306 310.066C349.534 308.564 349.947 307.096 350.535 305.695C351.612 303.131 352.929 300.676 354.471 298.361C355.644 296.584 356.539 295.6 356.472 295.544C356.405 295.488 356.192 295.734 355.767 296.159C355.185 296.782 354.64 297.439 354.135 298.126C352.478 300.408 351.09 302.872 349.999 305.471C349.402 306.903 348.996 308.406 348.791 309.943C348.612 311.199 348.508 312.465 348.478 313.733C348.396 314.902 348.411 316.077 348.523 317.243V317.243Z" fill="#263238"/>
<path d="M354.079 414.113C352.996 414.689 352.005 415.424 351.139 416.293C350.159 417.027 349.295 417.905 348.579 418.898C349.668 418.308 350.66 417.554 351.519 416.662C352.499 415.95 353.363 415.09 354.079 414.113V414.113Z" fill="#263238"/>
<path d="M350.468 410.525C349.291 410.119 348.057 409.9 346.812 409.877C345.586 409.662 344.335 409.636 343.101 409.799C345.504 410.419 347.989 410.665 350.468 410.525V410.525Z" fill="#263238"/>
<path d="M353.207 404.164C352.605 403.165 351.921 402.219 351.161 401.335C350.548 400.339 349.856 399.393 349.093 398.507C349.816 400.788 351.259 402.773 353.207 404.164V404.164Z" fill="#263238"/>
<path d="M358.025 401.246C358.066 402.659 358.291 404.061 358.696 405.416C358.922 406.814 359.336 408.175 359.926 409.463C359.886 408.05 359.66 406.648 359.255 405.293C359.029 403.895 358.615 402.534 358.025 401.246V401.246Z" fill="#263238"/>
<path d="M361.256 415.858C361.357 415.735 360.675 414.953 359.736 414.103C358.797 413.253 357.936 412.65 357.835 412.773C357.735 412.896 358.405 413.678 359.356 414.528C360.306 415.378 361.144 415.925 361.256 415.858Z" fill="#263238"/>
<path d="M376.237 412.985C375.769 412.1 375.144 411.308 374.392 410.648C373.274 409.463 372.246 408.591 372.156 408.703C372.067 408.815 372.861 409.821 374.001 411.051C375.141 412.28 376.114 413.097 376.237 412.985Z" fill="#263238"/>
<path d="M379.468 399.155C379.181 398.143 378.711 397.192 378.082 396.349C377.614 395.409 376.982 394.561 376.215 393.845C376.502 394.857 376.972 395.808 377.601 396.651C378.068 397.591 378.701 398.439 379.468 399.155Z" fill="#263238"/>
<path d="M389.026 387.909C388.73 389.081 388.617 390.291 388.691 391.498C388.577 392.703 388.66 393.919 388.937 395.098C389.23 393.925 389.34 392.715 389.261 391.509C389.374 390.304 389.295 389.089 389.026 387.909V387.909Z" fill="#263238"/>
<path d="M409.037 391.71C408.002 392.75 407.052 393.871 406.198 395.064C405.192 396.128 404.28 397.276 403.47 398.496C405.812 396.707 407.722 394.414 409.059 391.788L409.037 391.71Z" fill="#263238"/>
<path d="M411.609 411.386C409.211 411.453 406.839 411.91 404.588 412.738C406.986 412.671 409.357 412.214 411.609 411.386Z" fill="#263238"/>
<path d="M390.848 418.217C390.657 416.827 390.19 415.488 389.473 414.282C388.918 412.995 388.117 411.829 387.114 410.85C388.326 413.322 389.571 415.778 390.848 418.217V418.217Z" fill="#263238"/>
<path d="M397.768 408.792C398.068 407.854 398.186 406.868 398.115 405.886C398.235 404.908 398.162 403.917 397.903 402.968C397.588 403.902 397.466 404.891 397.545 405.874C397.435 406.852 397.511 407.842 397.768 408.792V408.792Z" fill="#263238"/>
<path d="M375.432 425.416C375.281 424.318 374.862 423.274 374.214 422.375C373.712 421.385 372.965 420.538 372.045 419.916C372.519 420.885 373.081 421.809 373.722 422.677C374.202 423.643 374.775 424.561 375.432 425.416V425.416Z" fill="#263238"/>
<path d="M399.133 426.781C399.811 425.949 400.333 425.002 400.676 423.986C401.197 423.045 401.545 422.019 401.704 420.956C401.031 421.792 400.505 422.737 400.15 423.751C399.635 424.693 399.291 425.719 399.133 426.781V426.781Z" fill="#263238"/>
<path d="M362.285 382.945C360.983 382.708 359.655 382.655 358.339 382.788C357.013 382.735 355.687 382.879 354.403 383.213C357.029 383.512 359.685 383.421 362.285 382.945V382.945Z" fill="#263238"/>
<path d="M353.688 368.244C352.553 367.08 351.28 366.059 349.898 365.203C348.632 364.189 347.251 363.326 345.784 362.632C346.92 363.795 348.192 364.816 349.574 365.673C350.844 366.682 352.224 367.545 353.688 368.244V368.244Z" fill="#263238"/>
<path d="M354.582 349.351C353.611 348.586 352.579 347.902 351.497 347.305C350.517 346.549 349.486 345.862 348.411 345.248C349.119 346.3 350.065 347.169 351.172 347.786C352.178 348.555 353.343 349.09 354.582 349.351V349.351Z" fill="#263238"/>
<path d="M364.207 342.666C364.123 341.102 363.846 339.555 363.38 338.06C363.099 336.517 362.63 335.016 361.982 333.588C362.073 335.152 362.354 336.699 362.821 338.194C363.103 339.734 363.568 341.236 364.207 342.666V342.666Z" fill="#263238"/>
<path d="M380.306 337.902C379.523 338.71 378.887 339.648 378.428 340.675C377.806 341.61 377.342 342.641 377.053 343.727C377.836 342.919 378.471 341.981 378.931 340.954C379.555 340.02 380.019 338.989 380.306 337.902V337.902Z" fill="#263238"/>
<path d="M394.18 369.786C394.069 369.652 392.235 371.061 389.82 372.548C387.406 374.034 385.349 375.052 385.349 375.208C388.674 374.14 391.69 372.28 394.136 369.786H394.18Z" fill="#263238"/>
<path d="M371.642 376.953C370.842 376.121 369.909 375.43 368.881 374.907C367.951 374.228 366.916 373.707 365.817 373.364C366.622 374.187 367.555 374.874 368.579 375.399C369.508 376.082 370.542 376.607 371.642 376.953V376.953Z" fill="#263238"/>
<path d="M367.919 361.704C368.042 361.581 366.589 360.15 365.236 358.071C363.883 355.991 363.145 354.091 363 354.147C363.664 357.187 365.423 359.877 367.941 361.704H367.919Z" fill="#263238"/>
<path d="M375.309 358.261C375.532 357.044 375.569 355.801 375.421 354.572C375.46 353.333 375.305 352.096 374.962 350.905C374.697 353.36 374.814 355.842 375.309 358.261V358.261Z" fill="#263238"/>
<path d="M379.378 373.376C379.81 372.176 380.055 370.916 380.105 369.642C380.34 368.389 380.389 367.108 380.25 365.841C379.589 368.296 379.295 370.835 379.378 373.376Z" fill="#263238"/>
<path d="M390.781 327.931C390.289 329.311 389.889 330.723 389.585 332.157C389.099 333.533 388.707 334.941 388.411 336.371C389.251 335.143 389.847 333.766 390.166 332.313C390.659 330.907 390.868 329.418 390.781 327.931V327.931Z" fill="#263238"/>
<path d="M398.82 354.37C397.781 353.482 396.679 352.671 395.522 351.944C394.466 351.064 393.344 350.264 392.168 349.552C393.904 351.72 396.19 353.383 398.786 354.37H398.82Z" fill="#263238"/>
<path d="M409.719 346.276C407.048 345.702 404.364 345.187 401.67 344.733C402.885 345.415 404.222 345.852 405.605 346.019C406.946 346.376 408.344 346.463 409.719 346.276V346.276Z" fill="#263238"/>
<path d="M399.11 337.198C399.021 337.064 397.992 337.567 396.807 338.316C395.622 339.065 394.739 339.792 394.829 339.926C395.665 339.726 396.447 339.344 397.12 338.808C398.305 338.048 399.189 337.333 399.11 337.198Z" fill="#263238"/>
<path d="M404.41 327.394C403.388 327.894 402.502 328.634 401.827 329.551C401.005 330.35 400.394 331.342 400.05 332.436C400.872 331.673 401.621 330.834 402.286 329.931C403.064 329.147 403.775 328.298 404.41 327.394Z" fill="#263238"/>
<path d="M411.631 336.74C410.367 336.927 409.124 337.234 407.919 337.657C406.664 337.9 405.433 338.255 404.241 338.719C405.537 338.817 406.838 338.646 408.065 338.216C409.338 337.962 410.55 337.461 411.631 336.74Z" fill="#263238"/>
<path d="M361.581 324.186C360.586 322.474 359.5 320.817 358.327 319.222C357.298 317.52 356.178 315.875 354.974 314.292C355.663 316.165 356.615 317.93 357.802 319.535C358.843 321.251 360.114 322.816 361.581 324.186V324.186Z" fill="#263238"/>
<path d="M364.812 312.727C364.813 309.865 364.437 307.016 363.694 304.253C363.678 307.115 364.054 309.967 364.812 312.727V312.727Z" fill="#263238"/>
<path d="M375.924 314.504C375.756 314.504 375.287 316.673 374.191 319.188C373.095 321.704 371.821 323.571 371.955 323.66C373.171 322.462 374.11 321.012 374.705 319.412C375.47 317.886 375.886 316.21 375.924 314.504V314.504Z" fill="#263238"/>
<path d="M388.981 317.266C388.858 317.165 387.226 319.077 384.979 321.19C382.732 323.302 380.731 324.812 380.82 324.946C382.519 324.099 384.059 322.965 385.37 321.592C386.817 320.371 388.039 318.907 388.981 317.266V317.266Z" fill="#263238"/>
<path d="M383.94 293.554C383.783 293.554 383.269 295.935 382.375 298.819C381.48 301.704 380.552 303.995 380.698 304.062C381.72 302.506 382.475 300.791 382.934 298.987C383.575 297.246 383.915 295.409 383.94 293.554V293.554Z" fill="#263238"/>
<path d="M368.881 285.75C368.52 287.126 368.339 288.542 368.345 289.965C368.156 291.378 368.156 292.811 368.345 294.224C368.714 292.846 368.898 291.425 368.893 289.998C369.088 288.589 369.084 287.159 368.881 285.75V285.75Z" fill="#263238"/>
<path d="M337.835 305.807C336.749 305.78 335.663 305.859 334.593 306.042C333.521 306.024 332.45 306.11 331.396 306.299C332.449 306.671 333.581 306.767 334.682 306.578C335.78 306.583 336.863 306.318 337.835 305.807Z" fill="#263238"/>
<path d="M338.752 297.969C337.361 296.919 335.862 296.019 334.28 295.286C332.795 294.386 331.212 293.658 329.562 293.117C330.957 294.163 332.455 295.062 334.034 295.8C335.519 296.7 337.102 297.428 338.752 297.969V297.969Z" fill="#263238"/>
<path d="M347.148 298.249C347.011 296.886 346.691 295.547 346.197 294.269C345.874 292.936 345.37 291.653 344.699 290.457C344.831 291.821 345.151 293.161 345.649 294.437C345.961 295.774 346.466 297.058 347.148 298.249V298.249Z" fill="#263238"/>
<g opacity="0.3">
<path opacity="0.3" d="M370.658 395.243C370.73 393.158 371.286 391.119 372.284 389.287C373.281 387.455 374.692 385.881 376.404 384.69C379.758 382.454 385.907 382.185 388.311 383.896C384.541 384.002 380.893 385.258 377.858 387.496C375.014 389.627 372.575 392.251 370.658 395.243" fill="black"/>
</g>
<g opacity="0.3">
<path opacity="0.3" d="M357.366 342.665C358.147 341.039 359.294 339.616 360.718 338.508C362.142 337.4 363.804 336.638 365.572 336.281C369.06 335.644 373.99 337.578 375.309 339.758C372.278 338.54 368.946 338.279 365.762 339.009C362.766 339.713 359.922 340.951 357.366 342.665" fill="black"/>
</g>
<g opacity="0.3">
<path opacity="0.3" d="M348.579 311.407C347.898 310.208 347.494 308.872 347.398 307.496C347.301 306.121 347.514 304.741 348.02 303.459C349.048 300.91 351.049 299.658 353.688 298.897C350.982 302.821 348.858 306.801 348.657 311.553" fill="black"/>
</g>
<path d="M402.944 388.178C402.944 388.178 403.392 388.591 404.062 389.43C405.059 390.612 405.932 391.893 406.667 393.253C408.832 397.904 410.121 402.914 410.468 408.033C410.801 413.146 410.549 418.281 409.719 423.337C409.406 425.283 409.115 426.859 408.914 427.943C408.776 428.5 408.69 429.069 408.657 429.643C408.873 429.111 409.042 428.561 409.16 427.999C409.428 426.881 409.797 425.361 410.155 423.416C411.129 418.335 411.448 413.15 411.105 407.988C410.779 402.799 409.426 397.726 407.125 393.063C406.34 391.7 405.394 390.435 404.308 389.296C403.934 388.835 403.47 388.455 402.944 388.178V388.178Z" fill="#263238"/>
<path d="M355.7 429.609H356.013H356.919H360.418L373.274 429.698L415.757 429.777L457.691 429.698L457.479 429.497C457.479 435.087 457.479 439.559 457.535 442.734C457.535 444.265 457.535 445.461 457.535 446.333C457.535 446.714 457.535 447.027 457.535 447.261C457.52 447.369 457.52 447.478 457.535 447.586C457.535 447.586 457.535 447.474 457.535 447.261C457.535 447.049 457.535 446.714 457.535 446.333C457.535 445.461 457.535 444.265 457.602 442.734C457.602 439.559 457.68 435.053 457.736 429.497V429.285H457.535L415.712 429.273L373.23 429.363L360.373 429.452L356.874 429.508H355.969C355.875 429.53 355.785 429.564 355.7 429.609Z" fill="#263238"/>
<path d="M248.042 66.6427L256.505 237.734L286.746 237.164V281.893L329.619 237.846H466.557L481.94 57.8779L248.042 66.6427Z" fill="white"/>
<path d="M248.042 66.643L481.929 57.6211H482.22V57.9118C477.636 111.573 472.415 172.893 466.87 237.902V238.17H329.619L329.82 238.092L286.936 282.117L286.488 282.587V281.938C286.488 266.384 286.488 251.478 286.488 237.22L286.746 237.466L256.505 238.025H256.281V237.802C251.262 133.519 248.131 68.5882 248.042 66.7548C248.143 68.6441 251.396 133.564 256.74 237.802L256.505 237.578L286.746 236.997H286.991V237.254C286.991 251.541 286.991 266.447 286.991 281.972L286.533 281.782L329.395 237.734L329.474 237.645H466.557L466.266 237.913C471.856 172.927 477.088 111.585 481.683 57.9229L481.951 58.2024L248.042 66.643Z" fill="#263238"/>
<path d="M445.584 109.27L459.257 76.5361L470.973 83.4898L445.584 109.27Z" fill="#EC5A61"/>
<path d="M459.033 134.279L495.02 136.661L492.192 150.221L459.033 134.279Z" fill="#EC5A61"/>
<path d="M453.879 115.877L500.811 89.001L510 109.46L453.879 115.877Z" fill="#EC5A61"/>
<path d="M401.458 90.3652L403.527 95.3737L408.535 97.4419L403.527 99.4989L401.458 104.519L399.401 99.4989L394.382 97.4419L399.401 95.3737L401.458 90.3652Z" fill="#EC5A61"/>
<path d="M282.441 204.933L284.509 209.952L289.518 212.009L284.509 214.077L282.441 219.086L280.384 214.077L275.364 212.009L280.384 209.952L282.441 204.933Z" fill="#EC5A61"/>
<path d="M384.465 87.1904L385.505 89.6946L388.009 90.7343L385.505 91.7629L384.465 94.2671L383.437 91.7629L380.933 90.7343L383.437 89.6946L384.465 87.1904Z" fill="#EC5A61"/>
<path d="M300.686 202.898L301.715 205.414L304.23 206.442L301.715 207.471L300.686 209.975L299.658 207.471L297.153 206.442L299.658 205.414L300.686 202.898Z" fill="#EC5A61"/>
<path d="M459.815 166.934L460.844 169.438L463.359 170.466L460.844 171.495L459.815 174.01L458.787 171.495L456.271 170.466L458.787 169.438L459.815 166.934Z" fill="#EC5A61"/>
<path d="M109.628 103.87C111.271 98.5681 113.953 93.6462 117.517 89.391C121.081 85.1358 125.457 81.6324 130.388 79.0851C141.232 73.4953 154.156 73.0817 166.017 75.8095C177.879 78.5373 188.835 84.25 199.187 90.6447C205 94.2333 210.791 98.1573 214.838 103.624C222.306 113.596 229.517 129.829 229.908 142.294C230.222 152.356 225.649 177.42 221.144 186.431C219.534 189.639 215.778 192.479 211.25 194.86C206.404 203.78 200.006 211.765 192.356 218.438C190.21 211.618 188.071 204.799 185.939 197.979L109.628 103.87Z" fill="#263238"/>
<path d="M234.346 228.209C239.254 210.054 237.097 187.695 236.325 172.155C235.554 156.616 238.986 149.919 227.281 123.904C218.527 104.418 204.039 92.6016 190.232 85.4355L134.491 91.506C134.882 90.5222 135.285 89.572 135.687 88.6664L115.776 91.6514C108.443 90.757 103.389 94.2562 99.8455 99.8683C98.6373 101.227 97.601 102.728 96.76 104.34C94.1216 109.472 93.2496 115.296 92.4111 120.998C91.6414 126.641 91.2419 132.329 91.2149 138.024C91.0472 140.26 90.9019 142.261 90.7566 143.793C90.614 146.276 90.8209 148.768 91.3715 151.194C92.1876 175.14 95.2619 201.501 92.3441 221.412C92.031 223.492 91.7516 225.716 92.6683 227.617C93.585 229.517 95.765 230.792 97.7997 231.753C122.518 243.503 140.002 229.417 164.43 217.086C169.192 214.693 174.055 211.787 179.377 211.988C184.966 212.2 189.662 226.946 194.827 229.215" fill="#263238"/>
<path d="M208.499 137.264C207.862 122.16 198.438 109.527 183.904 105.368L138.605 92.4225C118.94 89.7282 105.066 113.664 103.222 133.373C101.154 155.33 99.6107 178.516 101.712 195.006C105.938 228.164 131.103 233.139 131.103 233.139C131.103 233.139 130.656 248.846 130.399 258.483L152.412 364.208L200.226 253.877L208.611 137.61C208.633 137.107 208.533 138.024 208.499 137.264Z" fill="#A26760"/>
<path d="M115.15 163.2C115.104 164.305 115.493 165.383 116.232 166.205C116.972 167.026 118.004 167.525 119.108 167.594C119.644 167.654 120.187 167.606 120.705 167.452C121.223 167.299 121.704 167.043 122.121 166.7C122.538 166.357 122.882 165.934 123.133 165.456C123.383 164.978 123.535 164.454 123.58 163.916C123.626 162.813 123.239 161.736 122.501 160.915C121.764 160.094 120.734 159.594 119.633 159.522C119.096 159.462 118.552 159.51 118.034 159.663C117.516 159.817 117.033 160.073 116.616 160.415C116.198 160.758 115.853 161.181 115.601 161.66C115.349 162.138 115.196 162.662 115.15 163.2V163.2Z" fill="#263238"/>
<path d="M107.805 146.43C108.308 146.989 111.595 144.72 116.145 144.876C120.695 145.033 123.97 147.403 124.474 146.866C124.731 146.62 124.216 145.614 122.797 144.507C120.846 143.086 118.502 142.304 116.089 142.271C113.723 142.196 111.394 142.873 109.437 144.205C108.084 145.212 107.57 146.195 107.805 146.43Z" fill="#263238"/>
<path d="M153.988 163.815C153.944 164.918 154.332 165.995 155.069 166.817C155.805 167.639 156.833 168.142 157.934 168.22C158.471 168.275 159.013 168.224 159.529 168.068C160.046 167.912 160.526 167.655 160.942 167.311C161.358 166.968 161.702 166.545 161.953 166.068C162.204 165.591 162.358 165.068 162.406 164.531C162.449 163.429 162.061 162.354 161.324 161.533C160.587 160.713 159.56 160.212 158.459 160.137C157.923 160.079 157.381 160.128 156.864 160.282C156.347 160.436 155.866 160.692 155.449 161.035C155.033 161.377 154.689 161.8 154.438 162.277C154.187 162.755 154.034 163.278 153.988 163.815Z" fill="#263238"/>
<path d="M151.081 147.683C151.584 148.253 154.871 145.972 159.421 146.129C163.971 146.285 167.247 148.666 167.75 148.119C168.007 147.884 167.504 146.867 166.073 145.76C164.144 144.346 161.824 143.565 159.432 143.524C157.048 143.426 154.696 144.101 152.725 145.447C151.339 146.431 150.824 147.426 151.081 147.683Z" fill="#263238"/>
<path d="M135.821 183.043C135.821 182.786 133.038 182.216 128.465 181.489C127.347 181.333 126.229 181.065 126.039 180.26C125.849 179.455 126.319 178.18 126.923 176.839L130.634 168.096C135.799 155.631 139.578 145.368 139.064 145.167C138.549 144.966 133.966 154.893 128.812 167.358L125.234 176.168C124.754 177.476 123.96 178.952 124.497 180.707C124.65 181.123 124.898 181.499 125.219 181.805C125.541 182.112 125.929 182.34 126.352 182.473C126.992 182.663 127.653 182.776 128.32 182.809C132.926 183.2 135.754 183.323 135.821 183.043Z" fill="#263238"/>
<path d="M175.23 222.652C175.23 222.652 163.838 245.011 130.914 240.909L131.115 233.139C146.508 233.798 161.781 230.168 175.23 222.652Z" fill="#7B4B45"/>
<path d="M152.982 126.978C153.385 128.23 157.957 127.783 163.278 128.588C168.6 129.393 172.882 130.991 173.619 129.896C173.955 129.382 173.239 128.185 171.529 126.933C169.251 125.39 166.652 124.386 163.928 123.999C161.204 123.611 158.428 123.85 155.81 124.697C153.821 125.435 152.803 126.385 152.982 126.978Z" fill="#263238"/>
<path d="M108.845 126.542C109.605 127.605 112.78 126.621 116.559 126.688C120.337 126.755 123.501 127.605 124.273 126.542C124.608 126.028 124.138 124.977 122.775 123.949C120.935 122.718 118.772 122.062 116.559 122.062C114.346 122.062 112.182 122.718 110.343 123.949C108.923 124.977 108.498 126.028 108.845 126.542Z" fill="#263238"/>
<path d="M113.059 103.49C115.228 98.582 120.762 95.7536 126.117 95.6642C131.472 95.5747 136.648 97.7212 141.221 100.538C160.55 112.456 169.863 140.181 188.946 152.49C193.641 155.519 199.935 153.049 203.893 156.962C207.851 160.874 210.299 167.101 207.906 172.143C210.623 168.644 213.373 165.078 214.972 160.964C216.571 156.85 216.906 152.02 214.793 148.085C213.194 145.122 210.321 142.819 209.572 139.533C208.935 136.648 210.154 133.675 210.12 130.723C210.086 127.772 208.745 124.876 207.336 122.216C200.114 108.543 189.997 96.0778 176.738 88.118C168.084 82.7919 158.145 79.917 147.984 79.8004C137.776 79.7458 127.886 83.3466 120.102 89.9514C115.631 93.8754 110.958 97.9336 113.048 103.49" fill="#263238"/>
<path d="M203.301 161.053C203.67 160.114 221.065 154.345 220.775 172.691C220.484 190.477 202.653 186.464 202.63 185.95C202.608 185.435 203.301 161.053 203.301 161.053Z" fill="#A26760"/>
<path d="M208.243 179.32C208.321 179.32 208.544 179.544 209.07 179.801C209.802 180.122 210.629 180.154 211.384 179.89C213.273 179.231 214.917 176.28 215.062 173.082C215.141 171.552 214.873 170.023 214.28 168.61C214.127 168.057 213.845 167.548 213.456 167.126C213.067 166.704 212.583 166.381 212.044 166.184C211.689 166.081 211.31 166.106 210.972 166.256C210.635 166.405 210.361 166.669 210.199 167.001C209.942 167.492 210.054 167.85 209.953 167.873C209.852 167.895 209.584 167.571 209.741 166.844C209.841 166.399 210.094 166.003 210.456 165.726C210.954 165.368 211.572 165.219 212.178 165.312C212.907 165.467 213.584 165.808 214.142 166.301C214.7 166.795 215.121 167.425 215.364 168.13C216.092 169.683 216.43 171.391 216.348 173.105C216.158 176.682 214.257 180.002 211.675 180.695C211.196 180.826 210.694 180.847 210.206 180.756C209.718 180.665 209.257 180.465 208.857 180.17C208.265 179.756 208.176 179.354 208.243 179.32Z" fill="#7B4B45"/>
<path d="M210.657 152.109C210.281 151.94 209.925 151.73 209.595 151.483C208.935 151.036 207.895 150.432 206.666 149.504C203.241 146.839 200.108 143.819 197.32 140.494C193.268 135.515 189.495 130.316 186.017 124.921C181.992 118.917 177.577 112.277 171.875 106.228C169.078 103.319 165.974 100.722 162.618 98.4811C159.48 96.4293 156.101 94.7734 152.557 93.5509C146.541 91.4193 140.175 90.4518 133.798 90.7001C129.476 90.8172 125.19 91.5128 121.053 92.7683C119.577 93.1708 118.493 93.6291 117.699 93.8863C117.34 94.0509 116.966 94.1783 116.581 94.2664C116.939 94.062 117.313 93.8864 117.699 93.7409C118.79 93.249 119.91 92.8235 121.053 92.4665C125.171 91.0731 129.465 90.2677 133.809 90.074C140.259 89.7529 146.712 90.6752 152.814 92.7907C156.434 94.0197 159.888 95.6907 163.099 97.7656C166.511 100.021 169.664 102.645 172.501 105.591C178.236 111.774 182.63 118.481 186.621 124.496C190.048 129.907 193.761 135.131 197.744 140.147C200.472 143.482 203.52 146.541 206.845 149.281C208.03 150.231 209.025 150.879 209.662 151.371C210.011 151.593 210.343 151.84 210.657 152.109Z" fill="#455A64"/>
<path d="M210.176 182.529C211.051 182.399 211.942 182.607 212.669 183.111C213.395 183.616 213.903 184.378 214.087 185.242C214.272 186.107 214.12 187.01 213.662 187.767C213.205 188.524 212.476 189.078 211.624 189.316C210.773 189.555 209.862 189.46 209.078 189.05C208.294 188.641 207.696 187.949 207.404 187.114C207.113 186.279 207.15 185.364 207.51 184.556C207.869 183.748 208.522 183.107 209.337 182.764" fill="white"/>
<path d="M209.338 182.764C208.556 183.359 207.975 184.178 207.672 185.112C207.53 185.594 207.512 186.103 207.62 186.594C207.727 187.084 207.957 187.54 208.287 187.918C208.67 188.396 209.187 188.75 209.771 188.936C210.356 189.121 210.982 189.129 211.571 188.96C212.16 188.79 212.686 188.45 213.082 187.982C213.479 187.514 213.728 186.939 213.798 186.33C213.876 185.834 213.828 185.326 213.658 184.853C213.488 184.381 213.202 183.958 212.826 183.625C212.082 182.982 211.155 182.591 210.176 182.507C210.176 182.507 210.456 182.328 211.015 182.328C211.833 182.35 212.62 182.645 213.25 183.167C213.736 183.546 214.114 184.046 214.347 184.617C214.581 185.187 214.661 185.809 214.581 186.42C214.508 187.182 214.207 187.904 213.718 188.493C213.228 189.081 212.573 189.509 211.837 189.72C211.102 189.931 210.319 189.916 209.592 189.676C208.865 189.437 208.227 188.984 207.761 188.376C207.37 187.902 207.109 187.334 207.005 186.728C206.901 186.122 206.957 185.499 207.169 184.922C207.414 184.155 207.91 183.493 208.577 183.044C209.002 182.764 209.315 182.719 209.338 182.764Z" fill="#263238"/>
<path d="M206.018 157.017C206.163 161.88 206.23 167.012 203.871 171.26C201.512 175.508 195.766 178.292 191.574 175.732C188.22 173.663 187.281 169.225 186.811 165.29C185.447 153.92 185 142.45 183.547 131.092L206.018 157.017Z" fill="#263238"/>
<path d="M117.688 95.161C117.688 95.2616 119.264 94.9038 122.159 94.9038C126.187 94.9451 130.166 95.7888 133.864 97.3857C136.42 98.4539 138.853 99.7958 141.12 101.388C143.716 103.246 146.199 105.259 148.554 107.414C154.006 112.307 158.851 117.835 162.987 123.881C165.156 127.123 167.056 130.432 169.147 133.518C171.099 136.518 173.399 139.276 176 141.735C180.491 145.784 185.435 149.299 190.735 152.21C195.206 154.748 198.963 156.537 201.556 157.8L204.552 159.186C204.906 159.371 205.282 159.51 205.67 159.6C205.363 159.362 205.029 159.159 204.675 158.996L201.713 157.431C199.186 156.089 195.486 154.2 191.07 151.595C185.882 148.623 181.035 145.091 176.615 141.064C174.068 138.639 171.817 135.922 169.907 132.97C167.861 129.918 165.961 126.598 163.77 123.333C159.609 117.216 154.705 111.639 149.169 106.732C146.766 104.568 144.231 102.555 141.578 100.706C139.239 99.1144 136.736 97.78 134.11 96.7261C130.319 95.1516 126.241 94.3899 122.137 94.4902C121.03 94.5253 119.928 94.6449 118.839 94.8479C118.443 94.9024 118.056 95.0076 117.688 95.161V95.161Z" fill="#455A64"/>
<path d="M153.954 194.502C153.745 192.8 153.317 191.131 152.68 189.538C152.545 188.898 152.164 188.335 151.618 187.973C150.995 187.761 150.314 187.797 149.717 188.074C145.983 189.293 141.198 191.495 137.42 192.713C137.181 194.007 137.222 195.337 137.54 196.614C137.858 197.89 138.446 199.084 139.264 200.114C140.472 201.668 143.624 202.35 145.592 202.272C146.906 202.355 148.222 202.132 149.436 201.622C150.65 201.112 151.729 200.328 152.59 199.332C153.653 197.959 154.142 196.228 153.954 194.502V194.502Z" fill="#7B4B45"/>
<path d="M140.874 200.584C140.975 200.338 142.853 201.993 146.352 201.702C148.334 201.533 150.173 200.604 151.484 199.108C152.23 198.178 152.762 197.094 153.04 195.935C153.319 194.775 153.337 193.568 153.094 192.401C152.863 191.216 152.305 190.12 151.484 189.237C150.746 188.488 149.785 188.678 148.667 189.114L142.797 191.506C139.443 192.837 137.319 193.574 137.208 193.407C137.096 193.239 139.097 192.166 142.384 190.601L148.175 187.895C148.803 187.61 149.477 187.436 150.165 187.381C150.99 187.351 151.794 187.648 152.401 188.208C153.459 189.277 154.179 190.634 154.469 192.11C154.755 193.481 154.723 194.9 154.374 196.257C154.025 197.614 153.369 198.872 152.456 199.936C151.687 200.778 150.754 201.456 149.714 201.927C148.674 202.397 147.549 202.652 146.408 202.675C144.899 202.736 143.402 202.38 142.082 201.646C141.187 201.109 140.819 200.651 140.874 200.584Z" fill="#263238"/>
<path d="M170.892 173.451C170.825 173.54 169.852 172.747 168.052 171.897C167 171.416 165.903 171.041 164.776 170.779C163.394 170.46 161.981 170.291 160.562 170.276C159.144 170.293 157.731 170.458 156.347 170.768C155.221 171.032 154.124 171.407 153.072 171.886C151.272 172.724 150.299 173.518 150.232 173.429C150.165 173.339 150.433 173.183 150.869 172.825C151.132 172.598 151.412 172.392 151.708 172.21C152.066 171.957 152.439 171.725 152.826 171.517C153.89 170.957 155.015 170.521 156.179 170.22C157.598 169.865 159.054 169.677 160.517 169.661C161.984 169.674 163.445 169.866 164.866 170.231C166.03 170.533 167.155 170.968 168.22 171.528C168.625 171.74 169.017 171.975 169.394 172.232C169.689 172.415 169.969 172.62 170.232 172.847C170.69 173.261 170.914 173.417 170.892 173.451Z" fill="#7B4B45"/>
<path d="M71.248 498.083L245.537 497.87L243.726 464.041L246.979 342.408L243.435 263.178C228.902 257.197 201.188 247.985 201.188 247.985C201.188 247.985 190.914 272.67 164.072 272.67C139.108 272.67 129.818 250.803 129.818 250.803L117.453 255.688C101.62 258.293 86.1243 262.643 71.248 268.656L77.4191 353.252C77.4191 353.252 90.3874 424.41 88.1627 437.009C85.9379 449.608 71.248 498.083 71.248 498.083Z" fill="#EC5A61"/>
<g opacity="0.3">
<path opacity="0.3" d="M147.157 375.756C145.704 385.393 144.653 396.483 151.226 403.705C155.027 407.852 160.595 409.742 165.536 412.414C175.687 417.892 183.423 426.947 190.455 436.058C197.487 445.17 204.094 454.851 212.882 462.33C221.669 469.809 233.172 475.019 244.587 473.398L242.205 450.659L183.077 390.457L147.157 375.756Z" fill="black"/>
</g>
<path d="M73.4848 267.841C73.4848 267.841 59.5886 272.614 47.1793 298.093C39.5214 313.845 11.7738 409.888 10.7341 421.917C10.667 422.677 10.7341 423.538 10.6446 424.477C7.01129 458.016 39.1524 481.18 66.3746 463.114C74.4713 457.644 80.4829 449.6 83.4345 440.285L93.9433 407.775L73.4848 267.841Z" fill="#EC5A61"/>
<path d="M154.066 424.857C153.977 424.991 142.093 417.758 127.515 408.702C112.937 399.647 101.176 392.179 101.265 392.045C101.355 391.911 113.238 399.144 127.817 408.21C142.395 417.277 154.144 424.723 154.066 424.857Z" fill="#263238"/>
<path d="M243.435 263.179C243.435 263.179 276.594 269.518 283.681 292.313C290.031 312.492 304.565 402.699 306.577 421.447C309.271 447.16 303.648 475.847 276.225 478.742C248.801 481.638 197.241 434.225 197.241 434.225L231.048 390.424L244.542 397.68L242.071 335.13L243.435 263.179Z" fill="#EC5A61"/>
<path d="M254.325 474.103L254.001 473.991L253.061 473.622C252.245 473.264 250.982 472.85 249.462 472.079C245.081 469.931 240.833 467.523 236.739 464.868C222.864 455.617 209.62 445.45 197.097 434.438L196.896 434.27L197.052 434.058C201.211 428.68 205.604 422.979 210.121 417.109L230.881 390.278L231.015 390.1L231.217 390.2C238.718 394.024 245.482 397.892 251.507 401.38C257.533 404.868 262.776 407.987 267.159 410.592C271.541 413.197 274.917 415.298 277.22 416.74L279.892 418.417L280.563 418.853C280.72 418.954 280.798 419.01 280.787 419.021L280.541 418.887L279.836 418.484L277.131 416.897L266.958 410.871C262.586 408.311 257.31 405.214 251.306 401.771C245.303 398.328 238.495 394.493 231.004 390.692L231.34 390.614L210.624 417.501L197.544 434.438V434.046C210.036 445.06 223.222 455.261 237.019 464.589C241.079 467.269 245.285 469.721 249.618 471.934C251.127 472.728 252.38 473.175 253.173 473.555L254.101 473.98C254.258 473.991 254.336 474.091 254.325 474.103Z" fill="#263238"/>
<path d="M79.0184 342.921C78.7768 342.946 78.5333 342.946 78.2917 342.921L76.1788 342.686L68.2748 341.736L40.7285 338.192L41.0191 337.991C39.1186 344.565 37.084 351.787 35.0157 359.366C30.5439 375.565 26.8435 390.3 24.3952 401.021C23.1654 406.387 22.2487 410.736 21.6338 413.755C21.3432 415.23 21.1084 416.393 20.9407 417.232C20.8625 417.6 20.7954 417.891 20.7507 418.126C20.7351 418.234 20.705 418.339 20.6612 418.439C20.6455 418.331 20.6455 418.222 20.6612 418.115L20.7954 417.209C20.9407 416.371 21.1308 415.197 21.3767 413.71C21.9245 410.68 22.7853 406.309 23.9592 400.932C26.3069 390.177 29.985 375.42 34.4232 359.21C36.4914 351.63 38.5373 344.408 40.4714 337.846L40.5384 337.622H40.762L68.3084 341.322L76.134 342.44L78.2358 342.765L79.0184 342.921Z" fill="#263238"/>
<path d="M85.5136 328.467C85.6813 328.467 86.6315 351.407 87.6153 379.714C88.5991 408.02 89.3034 430.983 89.1469 430.994C88.9904 431.005 88.029 408.054 87.034 379.736C86.039 351.418 85.3571 328.467 85.5136 328.467Z" fill="#263238"/>
<path d="M242.228 338.808C242.256 339.008 242.256 339.211 242.228 339.411V341.122C242.228 342.609 242.228 344.766 242.307 347.427C242.407 352.76 242.698 360.116 243.089 368.243C243.48 376.371 243.894 383.649 244.207 389.048C244.33 391.653 244.442 393.789 244.52 395.354C244.52 396.047 244.52 396.617 244.587 397.075C244.618 397.275 244.618 397.479 244.587 397.679C244.541 397.484 244.508 397.286 244.487 397.086L244.319 395.376C244.196 393.8 244.017 391.676 243.816 389.071C243.424 383.761 242.944 376.404 242.552 368.277C242.161 360.149 241.96 352.771 241.96 347.438C241.96 344.766 241.96 342.609 242.072 341.122C242.072 340.429 242.15 339.858 242.172 339.4C242.165 339.201 242.183 339.002 242.228 338.808V338.808Z" fill="#263238"/>
<path d="M265.503 287.292C265.637 287.381 260.104 296.236 253.15 307.091C246.196 317.946 240.45 326.655 240.316 326.566C240.182 326.476 245.704 317.622 252.669 306.778C259.634 295.934 265.369 287.292 265.503 287.292Z" fill="#263238"/>
<path d="M95.1502 265.425C91.3156 265.593 90.9355 263.514 86.7096 269.752C82.4838 275.99 84.8874 283.301 77.8443 284.52C70.8011 285.738 66.2846 270.668 65.5468 269.249C65.2337 268.6 63.445 264.665 61.075 259.5C58.213 253.228 54.5349 245.134 51.6506 238.885C46.3962 227.493 41.086 232.054 41.086 232.054L50.3314 265.313C50.3314 265.313 36.9943 240.573 31.3262 235.129C25.6582 229.684 21.8907 234.458 21.8907 234.458L39.9568 269.629C39.9568 269.629 25.7812 249.83 21.723 244.151C17.6649 238.471 14.2998 238.661 13.1483 240.506C11.9968 242.351 12.8129 245.984 14.188 248.846C15.5631 251.708 32.9026 278.114 32.1871 278.025C31.4716 277.935 17.5307 267.292 13.7967 265.425C10.0628 263.558 6.96605 265.123 6.50769 268.377C6.04933 271.63 33.2268 295.688 33.2268 295.688L45.0435 326.421L42.9641 338.416L77.0952 342.407L77.6877 324.576C77.6877 324.576 85.3345 312.86 88.0959 304.386C90.8572 295.912 95.1055 273.877 96.5253 271.641C97.9451 269.405 98.9736 265.269 95.1502 265.425Z" fill="#A26760"/>
<path d="M76.7597 304.319C76.7597 304.319 76.0442 304.185 74.7697 303.973C72.9755 303.671 71.1543 303.558 69.3365 303.637C68.0805 303.701 66.8296 303.842 65.5914 304.062C64.1185 304.388 62.5924 304.388 61.1195 304.062C59.5329 303.554 58.1196 302.614 57.039 301.346C55.9211 300.105 54.8925 298.663 53.8081 297.287C50.0866 292.54 45.7779 288.284 40.9852 284.621C39.1518 283.224 37.6314 282.162 36.5134 281.446C35.9363 281.107 35.38 280.734 34.8477 280.328C34.8477 280.328 35.0265 280.384 35.3284 280.541C35.6302 280.697 36.0774 280.943 36.6252 281.278C38.2074 282.213 39.7409 283.228 41.22 284.319C46.1276 287.908 50.5144 292.159 54.2553 296.952C55.3733 298.35 56.3235 299.781 57.4415 300.977C58.4461 302.179 59.7663 303.077 61.2537 303.57C62.6387 303.872 64.0723 303.872 65.4572 303.57C66.7147 303.366 67.9846 303.246 69.2582 303.213C71.1059 303.171 72.9521 303.348 74.7586 303.738C75.3958 303.883 75.8765 304.018 76.2119 304.118C76.4004 304.168 76.5838 304.235 76.7597 304.319V304.319Z" fill="#7B4B45"/>
<path d="M145.927 317.254L147.414 394.303C147.433 395.238 147.636 396.159 148.012 397.016C148.387 397.872 148.928 398.645 149.603 399.292C150.278 399.939 151.074 400.447 151.945 400.786C152.817 401.125 153.746 401.289 154.681 401.268L187.101 400.586C188.931 400.546 190.675 399.802 191.97 398.509C193.266 397.216 194.012 395.473 194.055 393.643L195.922 317.287C195.944 316.339 195.777 315.396 195.43 314.513C195.083 313.63 194.563 312.826 193.9 312.147C193.238 311.468 192.447 310.928 191.573 310.559C190.699 310.19 189.76 309.999 188.812 309.998H153.037C152.091 309.998 151.155 310.186 150.282 310.553C149.41 310.919 148.62 311.456 147.958 312.132C147.296 312.807 146.775 313.608 146.426 314.488C146.078 315.367 145.908 316.308 145.927 317.254V317.254Z" fill="#263238"/>
<path d="M174.481 324.755C174.481 325.348 174.305 325.928 173.975 326.421C173.645 326.914 173.176 327.298 172.628 327.524C172.08 327.75 171.477 327.809 170.896 327.693C170.314 327.576 169.78 327.29 169.362 326.87C168.943 326.449 168.659 325.914 168.544 325.333C168.43 324.751 168.491 324.148 168.72 323.601C168.948 323.053 169.334 322.586 169.828 322.258C170.322 321.93 170.903 321.757 171.496 321.759C171.889 321.757 172.279 321.834 172.642 321.984C173.006 322.134 173.336 322.355 173.614 322.634C173.891 322.912 174.111 323.243 174.26 323.607C174.408 323.972 174.483 324.362 174.481 324.755V324.755Z" fill="white"/>
<path d="M195.162 334.928C195.162 334.928 204.463 345.929 207.884 350.815C211.305 355.7 212.524 371.597 212.524 371.597L214.76 389.932L227.739 397.478L203.401 428.154L183.401 409.485L164.128 402.442C164.128 402.442 151.159 390.222 148.957 384.554C147.651 381.361 146.986 377.943 147.001 374.493C147.001 374.493 140.897 361.301 139.667 356.605C138.437 351.91 138.448 343.648 138.448 343.648C138.448 343.648 141.869 342.665 144.809 348.288L140.159 338.763C140.159 338.763 142.607 331.429 148.957 338.517C155.307 345.605 165.827 357.578 165.827 357.578L177.811 367.114L179.276 365.404C179.276 365.404 158.035 339.49 158.493 334.85C158.951 330.211 163.39 329.954 168.029 334.85C172.669 339.747 191.741 364.185 194.189 364.431C196.638 364.677 197.364 361.256 197.364 361.256L195.654 351.966L194.681 350.01L195.162 334.928Z" fill="#A26760"/>
<path d="M162.193 373.565C161.872 373.297 161.584 372.993 161.333 372.659C160.807 372.044 160.069 371.139 159.186 370.01C157.409 367.774 155.039 364.554 152.568 360.932C150.097 357.31 147.984 353.934 146.531 351.452C145.804 350.211 145.234 349.216 144.854 348.489C144.634 348.137 144.454 347.762 144.317 347.371C144.604 347.679 144.852 348.02 145.055 348.388L146.933 351.239C148.476 353.654 150.623 356.985 153.093 360.608C155.564 364.23 157.867 367.438 159.555 369.764L161.556 372.514C161.803 372.842 162.017 373.194 162.193 373.565V373.565Z" fill="#7B4B45"/>
<path d="M156.459 385.817C154.385 383.426 152.455 380.913 150.679 378.293C148.754 375.796 146.984 373.182 145.38 370.468C147.453 372.859 149.383 375.372 151.16 377.992C153.092 380.484 154.862 383.098 156.459 385.817V385.817Z" fill="#7B4B45"/>
<path d="M326.398 111.407C324.208 110.477 322.033 110.012 319.873 110.012C315.493 110.012 313.303 111.632 313.303 114.872C313.303 116.282 313.798 117.602 314.788 118.832C315.778 120.032 316.978 121.112 318.388 122.072C319.798 123.002 321.208 123.962 322.618 124.952C324.028 125.942 325.228 127.127 326.218 128.507C327.208 129.887 327.703 131.387 327.703 133.007C327.703 135.737 326.788 137.807 324.958 139.217C323.128 140.597 320.593 141.287 317.353 141.287C314.143 141.287 311.398 140.462 309.118 138.812L310.198 137.192C312.358 138.602 314.728 139.307 317.308 139.307C319.888 139.307 321.868 138.797 323.248 137.777C324.628 136.727 325.318 135.227 325.318 133.277C325.318 131.927 324.823 130.652 323.833 129.452C322.843 128.222 321.643 127.127 320.233 126.167C318.823 125.177 317.413 124.172 316.003 123.152C314.593 122.132 313.393 120.917 312.403 119.507C311.413 118.097 310.918 116.582 310.918 114.962C310.918 112.832 311.698 111.152 313.258 109.922C314.848 108.662 316.978 108.032 319.648 108.032C322.348 108.032 324.853 108.572 327.163 109.652L326.398 111.407ZM349.477 141.197C345.307 141.197 341.812 139.742 338.992 136.832C336.172 133.922 334.762 130.367 334.762 126.167C334.762 121.937 336.172 118.367 338.992 115.457C341.812 112.547 345.307 111.092 349.477 111.092C353.647 111.092 357.142 112.547 359.962 115.457C362.782 118.367 364.192 121.937 364.192 126.167C364.192 130.367 362.782 133.922 359.962 136.832C357.142 139.742 353.647 141.197 349.477 141.197ZM349.477 112.937C345.877 112.937 342.877 114.212 340.477 116.762C338.107 119.312 336.922 122.447 336.922 126.167C336.922 129.857 338.107 132.977 340.477 135.527C342.877 138.047 345.877 139.307 349.477 139.307C353.107 139.307 356.107 138.047 358.477 135.527C360.847 132.977 362.032 129.857 362.032 126.167C362.032 122.447 360.847 119.312 358.477 116.762C356.107 114.212 353.107 112.937 349.477 112.937ZM380.699 140.747H378.674V130.307L367.649 111.542H370.124L378.629 126.032C379.289 127.352 379.664 128.057 379.754 128.147C379.934 127.757 380.309 127.067 380.879 126.077L389.384 111.542H391.724L380.699 130.397V140.747ZM311.953 195.747V166.542H314.023V195.747H311.953ZM334.369 189.627L344.134 166.542H346.294L333.739 195.927H332.524L319.969 166.542H322.219L333.244 192.507C333.394 192.057 333.769 191.097 334.369 189.627ZM351.449 185.622L347.264 195.747H345.149L357.389 166.362H358.604L370.934 195.747H368.639L364.409 185.622H351.449ZM357.884 169.692C357.434 171.042 357.029 172.167 356.669 173.067L352.169 183.867H363.689L359.234 173.112C358.544 171.432 358.094 170.292 357.884 169.692ZM376.86 195.747V166.362H377.85L397.02 188.412C397.71 189.192 398.34 189.972 398.91 190.752C399.51 191.502 399.825 191.892 399.855 191.922C399.795 191.202 399.765 189.792 399.765 187.692V166.542H401.835V195.927H400.845L381.315 173.517L378.84 170.502C378.9 171.102 378.93 172.512 378.93 174.732V195.747H376.86ZM414.071 185.622L409.886 195.747H407.771L420.011 166.362H421.226L433.556 195.747H431.261L427.031 185.622H414.071ZM420.506 169.692C420.056 171.042 419.651 172.167 419.291 173.067L414.791 183.867H426.311L421.856 173.112C421.166 171.432 420.716 170.292 420.506 169.692Z" fill="#EC5A61"/>
</svg>
